<?xml version="1.0" standalone="no"?>
<!DOCTYPE svg PUBLIC "-//W3C//DTD SVG 20010904//EN"
 "http://www.w3.org/TR/2001/REC-SVG-20010904/DTD/svg10.dtd">
<svg version="1.0" xmlns="http://www.w3.org/2000/svg"
 width="1687.000000pt" height="1687.000000pt" viewBox="0 0 1687.000000 1687.000000"
 preserveAspectRatio="xMidYMid meet">
<metadata>
Created by potrace 1.11, written by Peter Selinger 2001-2013
</metadata>
<g transform="translate(0.000000,1687.000000) scale(0.100000,-0.100000)"
fill="#000000" stroke="none">
<path d="M6357 16758 c-14 -62 -36 -147 -47 -188 -86 -314 -191 -752 -226
-940 -2 -14 -11 -59 -19 -100 -8 -41 -17 -91 -20 -110 -3 -19 -8 -42 -10 -50
-2 -8 -7 -40 -10 -70 -3 -30 -8 -62 -10 -70 -29 -116 -26 -550 5 -715 5 -27
12 -62 15 -77 12 -66 18 -88 41 -169 135 -472 436 -871 889 -1178 104 -71 297
-184 332 -195 16 -5 33 7 78 56 223 245 393 586 459 918 2 14 9 49 15 77 31
155 35 525 7 676 -9 49 -18 92 -20 96 -3 4 -8 22 -11 39 -9 55 -55 193 -102
307 -201 492 -637 1121 -1113 1608 -106 109 -205 197 -222 197 -2 0 -16 -51
-31 -112z"/>
<path d="M8318 16379 c-55 -68 -151 -215 -201 -309 -169 -314 -189 -501 -86
-809 51 -154 192 -452 264 -559 l22 -32 39 42 c21 24 53 60 69 81 17 21 35 44
41 51 50 55 161 287 190 399 37 141 50 343 29 457 -4 19 -9 46 -12 60 -35 195
-159 459 -301 639 l-19 23 -35 -43z"/>
<path d="M5201 15973 c-79 -262 -107 -622 -60 -783 34 -115 129 -245 253 -348
58 -49 266 -172 290 -172 20 0 97 196 112 285 5 28 9 113 8 190 0 145 -19 253
-60 342 -26 56 -103 182 -133 217 -104 122 -291 293 -361 331 l-26 13 -23 -75z"/>
<path d="M10254 15992 c-176 -141 -277 -302 -300 -477 -3 -27 -8 -54 -11 -58
-3 -5 -7 -57 -8 -115 -4 -116 11 -218 42 -297 22 -58 83 -155 97 -155 28 0
142 107 203 190 53 71 76 119 101 205 27 91 33 138 32 265 0 99 -2 129 -15
208 -3 17 -8 49 -11 70 -6 43 -44 191 -53 209 -4 7 -31 -8 -77 -45z"/>
<path d="M9500 15420 c-3 -11 -8 -36 -14 -72 -16 -99 -85 -226 -201 -368 -64
-80 -175 -207 -225 -260 -8 -9 -40 -45 -70 -80 -30 -36 -58 -67 -61 -70 -19
-15 -238 -297 -292 -374 -303 -441 -566 -998 -633 -1341 -19 -100 -24 -125
-28 -156 -20 -137 -24 -294 -11 -424 11 -113 11 -115 20 -160 4 -22 9 -47 10
-56 10 -53 43 -168 73 -254 94 -265 263 -531 489 -764 58 -60 80 -91 78 -105
-2 -12 -6 -57 -10 -101 -3 -44 -8 -102 -10 -130 -6 -71 -15 -179 -20 -249 -10
-138 -16 -203 -20 -246 -2 -25 -7 -83 -10 -130 -3 -47 -8 -105 -10 -130 -2
-25 -7 -79 -10 -120 -13 -157 -16 -184 -20 -188 -2 -3 -28 17 -56 44 -333 311
-482 457 -1221 1194 -388 388 -704 701 -701 696 5 -8 153 -206 213 -286 74
-99 870 -1157 1214 -1615 231 -308 424 -564 428 -570 4 -5 18 -23 31 -40 39
-49 47 -72 43 -117 -3 -24 -8 -79 -11 -123 -3 -44 -7 -100 -10 -125 -2 -25 -7
-81 -10 -125 -6 -77 -8 -106 -20 -240 -2 -33 -7 -96 -11 -140 -8 -112 -14
-178 -17 -182 -3 -2 -20 14 -242 222 -71 68 -151 142 -176 166 -26 24 -105 99
-175 165 -71 67 -149 141 -174 164 -25 23 -106 99 -180 170 -74 70 -151 142
-170 160 -19 18 -97 92 -174 164 -76 72 -154 145 -173 162 -21 19 -33 37 -28
43 7 12 8 263 1 316 -2 17 -7 61 -11 98 -3 37 -8 78 -11 90 -2 12 -9 51 -15
87 -20 127 -89 375 -129 465 -148 333 -273 513 -486 699 -66 58 -284 216 -298
216 -1 0 -44 25 -95 55 -79 48 -382 205 -395 205 -3 0 -33 13 -68 29 -145 67
-467 176 -638 216 -146 35 -254 57 -335 70 -55 9 -111 18 -125 20 -14 2 -52 7
-85 11 -33 3 -67 8 -75 9 -133 25 -809 25 -910 0 -8 -2 -44 -6 -80 -10 -36 -3
-74 -8 -85 -10 -11 -2 -23 -4 -27 -4 -4 -1 24 -45 62 -98 323 -454 535 -869
629 -1233 18 -69 49 -168 68 -220 176 -477 601 -875 1118 -1048 151 -51 254
-74 400 -87 39 -4 88 -8 110 -11 53 -5 408 -5 465 0 25 2 91 7 148 11 56 3
110 8 120 10 9 1 46 6 82 9 36 4 76 8 90 10 14 3 48 7 75 11 71 9 116 15 145
20 14 3 42 8 64 11 21 3 47 7 56 9 10 2 38 6 62 10 51 8 11 49 373 -380 125
-148 237 -281 249 -295 11 -14 57 -68 101 -120 44 -52 82 -97 85 -100 3 -3 20
-24 38 -46 l32 -42 -38 -7 c-20 -4 -46 -9 -57 -10 -11 -2 -49 -9 -85 -15 -36
-7 -74 -13 -85 -15 -11 -1 -65 -10 -120 -20 -55 -9 -109 -18 -120 -19 -11 -2
-33 -6 -50 -9 -16 -3 -48 -9 -70 -12 -22 -3 -47 -7 -55 -10 -8 -2 -32 -6 -52
-9 -141 -21 -148 -26 -47 -27 41 -1 103 -3 139 -4 36 -2 128 -6 205 -9 77 -4
187 -9 245 -11 58 -3 161 -7 229 -10 69 -3 125 -6 126 -8 1 -2 152 -184 241
-292 18 -22 103 -128 189 -235 l156 -194 -6 -76 c-3 -41 -8 -93 -10 -115 -2
-22 -7 -78 -10 -125 -3 -47 -8 -105 -10 -130 -11 -128 -16 -191 -20 -245 -8
-110 -15 -199 -20 -250 -2 -27 -7 -86 -10 -130 -4 -44 -8 -81 -10 -83 -4 -4
-162 62 -517 216 -289 127 -315 138 -693 307 -132 59 -265 118 -295 131 -30
13 -66 31 -80 38 -22 13 -97 121 -300 436 -94 146 -165 255 -240 370 -38 58
-122 187 -187 287 -65 100 -119 180 -120 179 -3 -3 102 -269 309 -786 61 -151
112 -281 115 -287 5 -13 -33 2 -257 104 -30 14 -95 43 -145 65 -49 21 -108 48
-130 58 -75 35 -380 172 -400 180 -15 6 -31 38 -58 120 -48 143 -168 417 -217
500 -178 295 -248 390 -414 555 -92 92 -129 124 -206 181 -261 192 -543 293
-920 329 -36 3 -83 8 -105 10 -92 11 -525 4 -665 -10 -30 -3 -80 -8 -110 -11
-64 -6 -198 -23 -226 -28 -10 -2 -39 -7 -64 -10 -46 -6 -57 -8 -160 -26 -33
-6 -72 -13 -87 -16 -16 -3 -35 -7 -43 -9 -8 -2 -28 -7 -45 -9 -24 -4 -146 -31
-275 -61 -73 -16 -242 -62 -370 -100 -85 -26 -159 -47 -165 -49 -41 -10 -272
-89 -278 -95 -9 -9 364 -496 445 -582 7 -8 31 -37 52 -64 22 -28 44 -54 50
-60 6 -5 29 -32 51 -60 21 -27 42 -52 45 -55 4 -3 40 -43 80 -90 202 -233 456
-492 621 -634 218 -188 430 -303 711 -386 56 -17 116 -33 133 -36 16 -3 46 -9
65 -14 19 -4 57 -11 83 -15 27 -3 57 -8 67 -10 62 -12 176 -19 320 -19 206 -1
331 11 510 48 14 3 39 8 55 12 321 65 729 263 1024 497 46 37 87 67 91 67 4 0
26 -13 51 -28 62 -40 488 -293 522 -310 15 -7 24 -18 21 -24 -4 -6 -117 -93
-253 -194 l-246 -184 -60 6 c-33 3 -63 8 -66 9 -3 2 -45 7 -95 11 -161 14
-492 8 -579 -10 -11 -2 -40 -7 -65 -11 -203 -32 -425 -115 -585 -221 -110 -72
-248 -222 -371 -404 -142 -209 -291 -493 -428 -815 -43 -99 -83 -193 -91 -210
-7 -16 -27 -68 -45 -115 -18 -47 -36 -94 -41 -105 -47 -106 -189 -534 -178
-541 5 -3 17 -3 27 0 15 5 72 11 182 21 38 4 123 13 180 20 19 2 67 7 105 11
39 3 78 8 89 10 10 2 44 6 75 9 31 3 67 8 81 10 14 3 43 7 65 11 22 3 47 7 55
9 8 3 35 7 60 10 98 12 435 98 470 120 6 3 18 8 27 10 40 7 236 99 323 151
189 112 370 273 499 443 229 301 426 724 476 1021 3 19 10 62 16 95 13 73 18
258 8 328 -4 29 -3 56 1 60 6 7 128 66 310 149 25 11 107 49 183 84 l138 63
862 -511 c474 -281 880 -522 902 -536 22 -13 94 -57 160 -96 66 -40 119 -76
118 -81 -1 -6 -4 -50 -8 -100 -3 -49 -8 -110 -10 -135 -5 -44 -10 -104 -20
-245 -6 -80 -12 -153 -20 -240 -3 -33 -7 -89 -10 -125 -9 -122 -22 -288 -30
-380 -11 -129 -14 -166 -20 -255 -3 -49 -7 -108 -10 -130 -2 -22 -7 -76 -10
-120 -3 -44 -8 -102 -10 -130 -2 -27 -7 -81 -10 -120 -5 -69 -10 -130 -20
-250 -3 -33 -7 -94 -10 -135 -3 -41 -7 -95 -10 -120 -3 -25 -7 -81 -11 -125
-3 -44 -7 -102 -10 -130 -3 -27 -7 -81 -9 -120 -3 -38 -7 -95 -10 -125 -8 -98
-15 -184 -20 -245 -7 -102 -15 -198 -20 -250 -2 -27 -7 -84 -10 -125 -10 -140
-19 -250 -30 -375 -2 -27 -7 -88 -10 -135 -3 -47 -7 -103 -10 -125 -2 -22 -7
-76 -10 -120 -3 -44 -8 -98 -10 -120 -2 -22 -7 -80 -10 -130 -4 -49 -8 -110
-11 -135 -2 -25 -6 -79 -9 -120 -3 -41 -8 -100 -11 -130 -2 -30 -7 -89 -10
-130 -2 -41 -6 -93 -9 -115 -5 -53 -15 -175 -20 -250 -10 -139 -17 -232 -19
-255 l-1 -25 835 0 c551 0 834 3 833 10 0 6 -4 75 -7 155 -4 80 -9 163 -11
185 -3 22 -7 92 -10 155 -3 63 -7 142 -9 175 -3 33 -8 111 -11 174 -4 62 -8
136 -10 165 -2 28 -6 105 -10 172 -3 66 -7 140 -10 165 -2 24 -6 105 -10 179
-3 74 -8 155 -10 180 -2 25 -7 99 -10 165 -3 66 -7 147 -10 180 -2 33 -7 105
-10 160 -8 139 -14 245 -20 348 -3 48 -7 126 -10 175 -3 48 -7 123 -10 167 -3
44 -7 123 -10 175 -3 52 -8 127 -10 165 -3 39 -7 113 -10 165 -12 227 -15 269
-20 340 -2 41 -7 125 -10 185 -3 61 -8 137 -10 170 -3 33 -7 105 -10 160 -3
55 -7 136 -10 180 -2 44 -7 123 -10 175 -3 52 -7 124 -10 160 -2 36 -7 117
-10 180 -3 63 -7 142 -10 175 -4 65 -12 193 -20 345 -3 52 -7 127 -10 165 -2
39 -7 117 -10 175 -3 58 -8 130 -10 162 l-5 56 49 31 c26 17 53 31 59 31 7 0
12 5 12 10 0 6 4 10 8 10 5 0 152 84 328 187 175 102 393 229 482 281 l164 95
115 -32 c64 -18 123 -34 132 -36 9 -2 97 -26 196 -53 99 -27 236 -64 305 -82
69 -18 130 -38 137 -44 6 -6 14 -27 17 -46 34 -221 133 -492 270 -737 33 -58
133 -213 145 -223 3 -3 19 -23 35 -45 50 -67 137 -166 221 -250 276 -275 536
-411 1065 -555 62 -17 263 -59 315 -66 28 -3 53 -8 56 -10 4 -2 28 -6 55 -9
27 -3 56 -8 64 -10 8 -2 42 -7 75 -11 33 -3 67 -8 75 -9 8 -2 44 -6 80 -10 36
-3 81 -8 100 -10 38 -4 173 -15 255 -21 124 -9 617 -14 614 -7 -2 4 -25 52
-51 106 -27 54 -48 100 -48 102 0 2 -17 41 -38 87 -21 46 -52 112 -68 148
-106 239 -326 652 -455 855 -179 284 -394 545 -586 713 -32 28 -71 63 -88 77
-105 92 -321 215 -482 274 -78 29 -286 83 -368 96 -71 11 -368 14 -425 5 -30
-5 -73 -12 -95 -16 -179 -26 -487 -161 -624 -274 -24 -20 -38 -26 -50 -20 -9
5 -146 64 -306 131 -159 67 -305 129 -322 137 l-33 16 43 24 c23 13 57 33 75
43 17 11 47 27 65 38 17 10 93 54 167 98 74 44 155 91 180 105 25 14 178 103
340 198 162 95 349 204 415 242 66 38 124 73 128 77 4 4 58 -42 120 -103 242
-239 531 -377 876 -419 107 -13 352 -15 435 -3 21 3 57 8 80 11 118 17 343 72
456 111 501 175 899 410 1294 764 85 77 295 297 296 311 0 9 -506 253 -651
314 -32 14 -82 36 -111 49 -260 118 -634 245 -828 281 -73 14 -308 14 -373 1
-15 -3 -55 -11 -90 -16 -220 -38 -510 -150 -724 -281 -323 -197 -598 -514
-709 -816 l-26 -71 -182 -82 c-99 -46 -202 -93 -228 -106 -26 -13 -50 -20 -52
-16 -3 4 -7 73 -11 152 -3 80 -8 183 -11 230 -2 47 -6 123 -9 170 -2 47 -7
141 -11 210 -12 246 -14 229 16 218 14 -5 34 -12 45 -14 23 -5 188 -5 225 0
73 10 114 18 136 26 13 5 24 8 24 5 0 -2 46 12 103 31 387 133 820 447 1074
777 127 166 288 448 373 655 18 42 38 91 45 107 84 189 249 739 301 1000 2 11
17 85 33 165 17 80 32 159 35 175 18 95 36 206 41 245 3 25 7 52 10 60 2 8 7
39 10 69 4 30 8 61 10 70 1 9 6 39 9 66 19 143 36 247 61 375 8 41 17 90 20
108 9 52 71 336 100 452 14 58 27 113 30 123 2 9 2 17 0 17 -2 0 -54 -22 -117
-48 -62 -27 -196 -81 -298 -121 -102 -40 -194 -77 -205 -82 -11 -4 -60 -25
-110 -44 -49 -20 -103 -42 -120 -50 -16 -7 -79 -34 -140 -60 -579 -248 -1049
-570 -1360 -930 -33 -39 -62 -72 -65 -75 -20 -18 -117 -151 -170 -230 -208
-311 -359 -659 -444 -1025 -43 -181 -60 -347 -61 -570 0 -158 7 -276 20 -342
2 -11 6 -36 9 -54 16 -94 35 -173 66 -276 26 -84 96 -263 124 -315 13 -24 42
-78 65 -120 l42 -77 -11 -83 c-6 -46 -13 -94 -15 -108 -6 -44 -17 -124 -20
-157 -2 -17 -6 -49 -9 -70 -3 -21 -8 -60 -11 -88 -4 -27 -8 -61 -10 -75 -7
-46 -25 -184 -30 -235 -3 -27 -8 -57 -10 -65 -2 -8 -6 -40 -10 -70 -3 -30 -7
-71 -10 -90 -2 -19 -7 -60 -11 -90 -3 -30 -11 -60 -17 -66 -7 -6 -48 -27 -92
-46 -44 -20 -109 -50 -145 -66 -106 -48 -490 -223 -550 -249 -30 -14 -77 -35
-105 -48 -27 -13 -122 -55 -210 -95 -88 -40 -182 -82 -210 -95 -27 -12 -192
-86 -365 -165 -173 -78 -348 -157 -388 -176 -41 -19 -75 -34 -76 -34 -2 0 -4
33 -5 73 -2 39 -4 90 -6 112 -2 22 -6 90 -10 150 -13 234 -15 273 -20 350 -6
99 -13 210 -20 340 -3 55 -8 134 -10 175 -2 41 -7 113 -10 160 -3 47 -7 128
-10 180 -6 111 -12 220 -20 345 -4 50 -8 128 -10 175 -5 98 -13 247 -20 340
-7 101 -17 282 -18 316 -1 33 25 76 238 404 63 96 128 198 145 225 27 45 248
386 255 393 2 2 356 91 425 107 8 2 159 40 335 85 176 45 331 83 345 86 14 2
39 9 55 14 30 9 23 9 -155 -5 -30 -3 -73 -7 -95 -10 -22 -2 -71 -7 -110 -10
-38 -3 -88 -7 -110 -10 -22 -2 -71 -7 -110 -10 -81 -7 -139 -12 -210 -20 -44
-5 -87 -9 -202 -19 -38 -3 -38 -5 42 119 60 93 134 207 229 355 37 58 109 169
159 247 243 377 255 399 127 233 -41 -52 -79 -100 -85 -107 -15 -18 -23 -29
-100 -128 -38 -49 -89 -115 -114 -145 -24 -30 -56 -71 -71 -90 -15 -19 -47
-60 -72 -90 -24 -30 -185 -235 -358 -455 -173 -220 -367 -466 -432 -548 -64
-81 -124 -157 -132 -169 -9 -12 -17 -20 -20 -17 -4 4 -11 108 -31 459 -3 52
-8 129 -10 170 -6 102 -14 238 -20 340 -2 47 -7 133 -10 191 l-6 106 58 49
c403 340 723 771 908 1223 26 63 48 121 50 130 2 9 11 36 20 61 43 118 95 369
113 535 15 149 8 679 -12 875 -8 69 -19 174 -21 180 0 3 -5 32 -9 65 -4 32 -9
67 -11 76 -2 9 -6 33 -9 53 -45 282 -154 676 -266 956 -39 99 -49 122 -85 204
-8 18 -19 44 -24 57 -5 13 -10 22 -11 19z"/>
<path d="M10805 15368 c-49 -36 -178 -168 -237 -243 -209 -266 -329 -604 -322
-902 2 -98 8 -140 38 -278 20 -92 98 -269 165 -373 l41 -62 52 32 c272 164
464 449 504 748 10 77 12 301 3 395 -13 128 -55 323 -95 439 -31 90 -108 266
-116 266 -2 0 -16 -10 -33 -22z"/>
<path d="M13120 14880 c-14 -5 -142 -47 -285 -94 -143 -47 -327 -110 -410
-141 -82 -31 -154 -57 -160 -59 -5 -2 -23 -8 -40 -15 -16 -7 -75 -30 -130 -52
-288 -116 -429 -204 -595 -369 -171 -170 -290 -338 -395 -555 -79 -166 -158
-390 -180 -514 -3 -19 -8 -37 -10 -40 -2 -4 -6 -25 -9 -47 -4 -22 -9 -51 -11
-64 -3 -14 -7 -43 -10 -65 -3 -22 -8 -58 -11 -80 -13 -105 -20 -437 -10 -515
5 -31 17 -163 19 -197 1 -20 29 -24 154 -25 243 0 470 39 691 121 75 28 227
98 266 124 11 6 45 27 75 46 189 116 375 297 503 491 47 71 125 217 162 300
16 36 37 83 47 105 64 146 187 537 223 715 58 277 85 420 91 467 3 31 8 60 10
63 2 3 8 49 15 104 6 54 13 106 15 116 2 9 6 53 10 96 4 43 9 82 12 87 5 9 -4
8 -37 -3z"/>
<path d="M2969 14823 c-2 -14 3 -76 7 -97 2 -12 7 -37 10 -56 23 -131 150
-426 245 -571 236 -356 432 -504 764 -574 80 -17 291 -25 311 -12 13 8 10 158
-6 260 -25 166 -87 359 -165 519 -71 146 -178 244 -368 337 -120 59 -250 103
-402 138 -179 40 -394 71 -396 56z"/>
<path d="M4420 14490 c0 -6 11 -63 26 -128 14 -64 34 -160 45 -212 11 -52 28
-135 39 -185 10 -49 24 -115 30 -145 5 -30 12 -64 14 -75 63 -317 102 -527
112 -600 17 -138 71 -291 145 -414 22 -34 39 -67 39 -71 0 -5 3 -10 8 -12 4
-2 26 -29 49 -60 152 -204 403 -389 660 -488 156 -60 346 -103 517 -117 83 -7
345 -7 352 0 6 6 12 39 19 101 3 28 8 76 12 106 7 64 6 356 -1 415 -29 213
-40 275 -72 385 -105 362 -272 626 -545 859 -93 79 -102 86 -172 135 -291 201
-703 380 -1123 485 -114 29 -154 34 -154 21z"/>
<path d="M13865 13973 c-60 -19 -117 -36 -125 -38 -37 -8 -221 -80 -281 -111
-275 -137 -419 -368 -454 -724 -3 -30 -2 -60 3 -66 11 -17 95 -32 165 -29 115
5 227 48 328 125 195 151 374 435 448 711 17 64 35 171 28 168 -1 -1 -51 -17
-112 -36z"/>
<path d="M3697 13274 c-1 -1 -31 -4 -67 -8 -36 -3 -76 -8 -90 -11 -14 -3 -41
-8 -60 -11 -116 -18 -538 -148 -562 -172 -13 -13 329 -355 432 -432 94 -70
164 -106 232 -118 50 -10 192 -8 253 2 216 38 443 152 471 238 7 22 -78 179
-147 273 -113 155 -241 233 -391 239 -38 1 -70 1 -71 0z"/>
<path d="M1871 12149 c82 -161 228 -423 284 -510 102 -158 216 -221 388 -215
45 2 91 6 102 9 11 3 34 8 50 13 58 14 133 52 139 71 6 19 1 112 -10 178 -22
134 -124 324 -212 394 -68 53 -188 106 -300 132 -68 15 -75 17 -129 24 -26 4
-59 9 -73 11 -14 3 -87 7 -163 10 l-139 6 63 -123z"/>
<path d="M15215 11554 c-44 -7 -100 -15 -125 -19 -25 -3 -63 -10 -85 -15 -22
-5 -51 -11 -65 -13 -124 -23 -251 -62 -334 -103 -152 -74 -296 -241 -350 -405
-13 -40 -17 -58 -31 -129 -14 -70 -2 -247 18 -267 21 -20 119 -43 187 -43 169
0 334 83 505 255 135 134 229 273 304 448 34 82 91 266 91 297 0 10 -6 10
-115 -6z"/>
<path d="M1727 11104 c-1 -1 -54 -4 -117 -8 -126 -6 -146 -8 -325 -33 -58 -7
-253 -59 -299 -78 l-39 -17 105 -106 c93 -94 188 -201 363 -407 28 -32 55 -63
60 -69 6 -7 43 -50 84 -96 40 -47 132 -142 203 -212 281 -277 527 -417 813
-463 76 -13 325 -14 370 -2 11 2 41 8 68 11 26 4 60 11 75 17 15 6 27 10 27 9
0 -8 160 43 255 80 73 28 274 126 322 156 32 21 36 27 29 46 -5 13 -24 61 -42
108 -110 284 -324 580 -535 740 -32 25 -65 51 -72 58 -7 6 -17 12 -22 12 -5 0
-15 6 -23 14 -7 8 -70 41 -138 75 -116 56 -252 103 -344 117 -22 3 -42 7 -45
9 -3 2 -37 6 -75 10 -39 4 -85 8 -104 10 -98 11 -585 26 -594 19z"/>
<path d="M14899 10316 c-2 -2 -30 -6 -62 -10 -63 -6 -184 -44 -250 -78 -224
-113 -450 -373 -546 -628 l-21 -54 33 -55 c38 -64 143 -175 208 -219 50 -33
136 -75 184 -87 17 -5 32 -9 35 -10 23 -6 123 -18 155 -18 187 0 424 77 640
209 22 13 50 30 63 36 12 6 22 15 22 20 0 4 5 8 11 8 9 0 61 35 96 65 6 6 26
21 44 35 62 46 113 93 214 195 99 100 225 248 225 265 0 10 -162 89 -290 140
-155 62 -383 132 -500 154 -14 3 -50 9 -80 15 -58 11 -175 22 -181 17z"/>
<path d="M10431 10032 c-11 -40 -55 -117 -160 -282 -221 -347 -260 -607 -129
-865 43 -85 164 -243 206 -269 6 -3 37 26 69 66 172 211 262 401 269 563 6
165 -82 482 -214 764 l-30 65 -11 -42z"/>
<path d="M9431 9152 c-110 -224 -180 -432 -226 -667 -50 -254 76 -573 352
-892 l54 -62 28 32 c132 151 253 425 286 647 13 84 6 284 -10 311 -2 3 -7 20
-10 38 -24 136 -153 388 -282 549 -57 71 -124 142 -135 142 -5 0 -30 -44 -57
-98z"/>
<path d="M6015 8983 c-123 -13 -295 -48 -353 -73 l-22 -10 37 -57 c83 -132
209 -271 327 -362 161 -124 323 -167 467 -125 64 19 133 54 174 87 l30 25 -23
49 c-40 82 -147 235 -221 315 -89 95 -141 127 -236 143 -35 6 -149 11 -180 8z"/>
<path d="M14118 6964 c-2 -1 -31 -4 -65 -7 -72 -6 -196 -40 -271 -73 -41 -18
-52 -28 -49 -41 3 -10 8 -36 12 -58 10 -62 54 -163 102 -239 146 -227 420
-392 764 -461 100 -20 281 -23 379 -5 78 13 199 50 206 62 8 12 -87 187 -154
283 -72 104 -88 124 -185 224 -195 200 -417 306 -656 315 -44 1 -82 2 -83 0z"/>
<path d="M2075 6719 c-143 -30 -187 -46 -365 -132 -58 -28 -139 -65 -180 -83
-41 -18 -76 -37 -78 -42 -3 -11 183 -139 259 -177 67 -34 188 -82 229 -90 78
-16 205 -14 275 5 123 31 251 126 299 219 16 30 16 33 -11 79 -52 90 -183 204
-253 219 -38 9 -139 10 -175 2z"/>
<path d="M2837 6294 c-1 -1 -24 -4 -52 -7 -63 -6 -144 -27 -151 -38 -3 -5 -12
-9 -20 -9 -28 0 -129 -72 -191 -137 -156 -161 -326 -500 -437 -868 -15 -49
-31 -102 -36 -117 l-8 -26 51 3 c190 14 315 36 477 84 218 65 327 137 445 295
71 95 158 294 180 413 2 15 7 39 11 53 11 48 13 284 3 297 -15 18 -105 42
-193 51 -42 5 -77 7 -79 6z"/>
<path d="M6903 6130 c-117 -62 -158 -88 -270 -171 -101 -75 -284 -251 -359
-344 -181 -227 -308 -497 -349 -740 -12 -70 -14 -90 -21 -173 -13 -171 -5
-429 21 -607 16 -118 20 -141 46 -280 31 -165 154 -631 173 -652 1 -2 65 59
142 135 77 75 186 181 242 236 309 298 495 555 621 857 35 85 84 236 96 298 2
13 6 30 9 39 9 30 20 108 35 242 8 77 7 342 -3 395 -2 17 -7 50 -11 75 -3 25
-8 56 -10 70 -3 14 -7 35 -10 47 -13 69 -60 223 -98 319 -45 114 -126 273
-150 292 -9 8 -35 -1 -104 -38z"/>
<path d="M10653 6113 c-70 -58 -77 -65 -128 -128 -38 -48 -46 -59 -84 -129
-30 -55 -60 -148 -78 -241 -10 -52 -10 -305 -1 -370 19 -122 39 -208 84 -348
32 -99 90 -243 126 -311 l15 -28 63 78 c136 169 236 347 295 528 40 123 49
181 49 311 0 170 -23 300 -77 433 -46 112 -152 252 -191 252 -8 0 -40 -21 -73
-47z"/>
<path d="M5250 4994 c-309 -148 -470 -375 -472 -669 -1 -86 9 -317 17 -400 2
-22 7 -74 10 -115 4 -41 8 -86 10 -100 2 -14 6 -50 10 -80 8 -78 35 -262 41
-278 8 -26 83 37 275 228 348 347 460 595 425 940 -14 133 -69 296 -136 399
-37 57 -85 111 -98 111 -4 0 -41 -16 -82 -36z"/>
</g>
</svg>
